<svg width="32" height="32" viewBox="0 0 32 32" fill="none" xmlns="http://www.w3.org/2000/svg">
<g clip-path="url(#clip0_531_837)">
<path d="M16 29.3334C8.63599 29.3334 2.66666 23.3641 2.66666 16.0001C2.66666 8.63608 8.63599 2.66675 16 2.66675C23.364 2.66675 29.3333 8.63608 29.3333 16.0001C29.3333 23.3641 23.364 29.3334 16 29.3334ZM16 26.6667C18.829 26.6667 21.5421 25.5429 23.5425 23.5426C25.5428 21.5422 26.6667 18.8291 26.6667 16.0001C26.6667 13.1711 25.5428 10.458 23.5425 8.45761C21.5421 6.45722 18.829 5.33341 16 5.33341C13.171 5.33341 10.4579 6.45722 8.45752 8.45761C6.45713 10.458 5.33332 13.1711 5.33332 16.0001C5.33332 18.8291 6.45713 21.5422 8.45752 23.5426C10.4579 25.5429 13.171 26.6667 16 26.6667ZM17.3333 16.0001H22.6667V18.6667H14.6667V9.33341H17.3333V16.0001Z" fill="black"/>
</g>
<defs>
<clipPath id="clip0_531_837">
<rect width="32" height="32" fill="white"/>
</clipPath>
</defs>
</svg>
