<svg width="48" height="48" viewBox="0 0 48 48" fill="none" xmlns="http://www.w3.org/2000/svg">
<g clip-path="url(#clip0_529_414)">
<path d="M24 41.8001L33.9 31.9001C35.8578 29.9421 37.191 27.4475 37.7311 24.7318C38.2712 22.0161 37.9939 19.2013 36.9342 16.6432C35.8745 14.0851 34.0801 11.8987 31.7778 10.3604C29.4756 8.82215 26.7689 8.0011 24 8.0011C21.2311 8.0011 18.5244 8.82215 16.2222 10.3604C13.9199 11.8987 12.1255 14.0851 11.0658 16.6432C10.0062 19.2013 9.72883 22.0161 10.2689 24.7318C10.809 27.4475 12.1422 29.9421 14.1 31.9001L24 41.8001ZM24 47.4561L11.272 34.7281C8.75469 32.2107 7.04037 29.0034 6.34586 25.5118C5.65134 22.0201 6.00781 18.4009 7.3702 15.1119C8.73258 11.8228 11.0397 9.01163 13.9998 7.03378C16.9598 5.05592 20.44 4.00024 24 4.00024C27.5601 4.00024 31.0402 5.05592 34.0002 7.03378C36.9603 9.01163 39.2674 11.8228 40.6298 15.1119C41.9922 18.4009 42.3487 22.0201 41.6542 25.5118C40.9596 29.0034 39.2453 32.2107 36.728 34.7281L24 47.4561ZM24 26.0001C25.0609 26.0001 26.0783 25.5787 26.8284 24.8285C27.5786 24.0784 28 23.061 28 22.0001C28 20.9392 27.5786 19.9218 26.8284 19.1717C26.0783 18.4215 25.0609 18.0001 24 18.0001C22.9391 18.0001 21.9217 18.4215 21.1716 19.1717C20.4214 19.9218 20 20.9392 20 22.0001C20 23.061 20.4214 24.0784 21.1716 24.8285C21.9217 25.5787 22.9391 26.0001 24 26.0001ZM24 30.0001C21.8783 30.0001 19.8434 29.1572 18.3432 27.6569C16.8429 26.1567 16 24.1218 16 22.0001C16 19.8784 16.8429 17.8435 18.3432 16.3432C19.8434 14.8429 21.8783 14.0001 24 14.0001C26.1217 14.0001 28.1566 14.8429 29.6569 16.3432C31.1572 17.8435 32 19.8784 32 22.0001C32 24.1218 31.1572 26.1567 29.6569 27.6569C28.1566 29.1572 26.1217 30.0001 24 30.0001Z" fill="#111111"/>
</g>
<defs>
<clipPath id="clip0_529_414">
<rect width="48" height="48" fill="white"/>
</clipPath>
</defs>
</svg>
