<svg width="32" height="32" viewBox="0 0 32 32" fill="none" xmlns="http://www.w3.org/2000/svg">
<g clip-path="url(#clip0_531_842)">
<path d="M26.584 10.6666H28C28.7073 10.6666 29.3855 10.9476 29.8856 11.4477C30.3857 11.9478 30.6667 12.626 30.6667 13.3333V18.6666C30.6667 19.3739 30.3857 20.0521 29.8856 20.5522C29.3855 21.0523 28.7073 21.3333 28 21.3333H26.584C26.259 23.911 25.0044 26.2815 23.0557 27.9999C21.107 29.7184 18.5982 30.6666 16 30.6666V28C18.1217 28 20.1566 27.1571 21.6569 25.6568C23.1572 24.1565 24 22.1217 24 19.9999V11.9999C24 9.87822 23.1572 7.84339 21.6569 6.34309C20.1566 4.8428 18.1217 3.99995 16 3.99995C13.8783 3.99995 11.8434 4.8428 10.3432 6.34309C8.84287 7.84339 8.00001 9.87822 8.00001 11.9999V21.3333H4.00001C3.29277 21.3333 2.61449 21.0523 2.11439 20.5522C1.6143 20.0521 1.33334 19.3739 1.33334 18.6666V13.3333C1.33334 12.626 1.6143 11.9478 2.11439 11.4477C2.61449 10.9476 3.29277 10.6666 4.00001 10.6666H5.41601C5.74138 8.08914 6.99612 5.71898 8.94477 4.00085C10.8934 2.28272 13.4021 1.33472 16 1.33472C18.5979 1.33472 21.1066 2.28272 23.0552 4.00085C25.0039 5.71898 26.2586 8.08914 26.584 10.6666ZM4.00001 13.3333V18.6666H5.33334V13.3333H4.00001ZM26.6667 13.3333V18.6666H28V13.3333H26.6667ZM10.3467 21.0466L11.76 18.7853C13.0308 19.5813 14.5005 20.0024 16 19.9999C17.4995 20.0024 18.9692 19.5813 20.24 18.7853L21.6533 21.0466C19.959 22.1081 17.9994 22.6697 16 22.6666C14.0006 22.6697 12.041 22.1081 10.3467 21.0466Z" fill="black"/>
</g>
<defs>
<clipPath id="clip0_531_842">
<rect width="32" height="32" fill="white"/>
</clipPath>
</defs>
</svg>
