<svg width="48" height="48" viewBox="0 0 48 48" fill="none" xmlns="http://www.w3.org/2000/svg">
<g clip-path="url(#clip0_317_168)">
<path d="M24 28V32C20.8174 32 17.7652 33.2643 15.5147 35.5147C13.2643 37.7652 12 40.8174 12 44H8C8 39.7565 9.68571 35.6869 12.6863 32.6863C15.6869 29.6857 19.7565 28 24 28V28ZM24 26C17.37 26 12 20.63 12 14C12 7.37 17.37 2 24 2C30.63 2 36 7.37 36 14C36 20.63 30.63 26 24 26ZM24 22C28.42 22 32 18.42 32 14C32 9.58 28.42 6 24 6C19.58 6 16 9.58 16 14C16 18.42 19.58 22 24 22ZM36 43L30.122 46.09L31.244 39.546L26.49 34.91L33.062 33.954L36 28L38.94 33.954L45.51 34.91L40.756 39.546L41.876 46.09L36 43Z" fill="#111111"/>
</g>
<defs>
<clipPath id="clip0_317_168">
<rect width="48" height="48" fill="white"/>
</clipPath>
</defs>
</svg>
