<svg width="99" height="15" viewBox="0 0 99 15" fill="none" xmlns="http://www.w3.org/2000/svg">
<path d="M9.5 12V0.726562H0.0703125V12H2.08594V2.42188H7.48438V12H9.5ZM11.4375 14.7344H13.3828V10.6016H13.4219C13.8984 11.5703 14.8438 12.1641 16.0234 12.1641C18.0938 12.1641 19.4219 10.5234 19.4219 7.86719V7.85938C19.4219 5.1875 18.1016 3.54688 15.9922 3.54688C14.8125 3.54688 13.8984 4.15625 13.4297 5.14844H13.3828V3.71875H11.4375V14.7344ZM15.4141 10.5234C14.2188 10.5234 13.375 9.48438 13.375 7.86719V7.85938C13.375 6.23438 14.2109 5.1875 15.4141 5.1875C16.6562 5.1875 17.4375 6.20312 17.4375 7.85938V7.86719C17.4375 9.5 16.6641 10.5234 15.4141 10.5234ZM24.4531 12.1641C26.6172 12.1641 27.8359 10.8828 28.1016 9.60938L28.1172 9.52344H26.2969L26.2812 9.57812C26.0938 10.1328 25.4688 10.6484 24.4922 10.6484C23.2266 10.6484 22.4297 9.78906 22.4062 8.33594H28.2031V7.71094C28.2031 5.21094 26.7344 3.54688 24.3594 3.54688C21.9922 3.54688 20.4688 5.26562 20.4688 7.875V7.88281C20.4688 10.5156 21.9688 12.1641 24.4531 12.1641ZM24.3828 5.07031C25.4141 5.07031 26.1641 5.72656 26.3047 7.03906H22.4297C22.5781 5.76562 23.3594 5.07031 24.3828 5.07031ZM30.5078 14.2266V12H36.3906V14.2266H38.1719V10.4766H36.9062V3.71875H30.6094L30.3203 8.03906C30.2422 9.15625 29.9922 10.1172 29.3828 10.4766H28.7266V14.2266H30.5078ZM34.9609 10.4766H31.4062V10.4375C31.8047 9.88281 31.9922 9.08594 32.0547 8.14062L32.2656 5.24219H34.9609V10.4766ZM39.2578 12H42.7969C44.7266 12 45.9688 10.875 45.9688 9.10938V9.09375C45.9688 7.32812 44.7266 6.20312 42.7969 6.20312H41.2031V3.71875H39.2578V12ZM46.9062 12H48.8516V3.71875H46.9062V12ZM42.5234 7.70312C43.4141 7.70312 43.9844 8.25 43.9844 9.09375V9.10938C43.9844 9.94531 43.4219 10.5 42.5234 10.5H41.2031V7.70312H42.5234ZM51.6484 14.2266V12H57.5312V14.2266H59.3125V10.4766H58.0469V3.71875H51.75L51.4609 8.03906C51.3828 9.15625 51.1328 10.1172 50.5234 10.4766H49.8672V14.2266H51.6484ZM56.1016 10.4766H52.5469V10.4375C52.9453 9.88281 53.1328 9.08594 53.1953 8.14062L53.4062 5.24219H56.1016V10.4766ZM61.3984 14.75C63.1172 14.75 64.0938 14.1016 64.7188 12.2812L67.7031 3.71875H65.6484L63.7109 10.3438H63.6484L61.7109 3.71875H59.5938L62.5703 12.0078L62.4453 12.3438C62.1953 13.0391 61.7891 13.25 61.0391 13.25C60.7656 13.25 60.5391 13.2109 60.3984 13.1797V14.6641C60.625 14.7031 61.0156 14.75 61.3984 14.75ZM68.7422 12H79.2031V14.2266H80.9609V10.5H79.7031V3.71875H77.7578V10.4766H75.1953V3.71875H73.25V10.4766H70.6875V3.71875H68.7422V12ZM82.0547 12H83.9609L87.5312 6.4375H87.6094V12H89.5312V3.71875H87.625L84.0547 9.24219H83.9766V3.71875H82.0547V12ZM95.0781 2.82812C96.7891 2.82812 97.8359 1.85156 97.8359 0.414062V0.351562H96.3438V0.414062C96.3438 1.08594 95.875 1.64844 95.0859 1.64844C94.2656 1.64844 93.8281 1.08594 93.8281 0.414062V0.351562H92.3281V0.414062C92.3281 1.85156 93.375 2.82812 95.0781 2.82812ZM91.2734 12H93.1797L96.75 6.4375H96.8281V12H98.75V3.71875H96.8438L93.2734 9.24219H93.1953V3.71875H91.2734V12Z" fill="#BDBDBD"/>
</svg>
