<svg width="91" height="15" viewBox="0 0 91 15" fill="none" xmlns="http://www.w3.org/2000/svg">
<path d="M5.96094 12.1953C8.55469 12.1953 10.4688 10.5938 10.7656 8.28125L10.7734 8.20312H8.79688L8.78125 8.28125C8.40625 9.67188 7.40625 10.4453 5.96094 10.4453C4 10.4453 2.73438 8.86719 2.73438 6.35938V6.35156C2.73438 3.85156 3.99219 2.28125 5.96094 2.28125C7.4375 2.28125 8.42188 3.08594 8.75 4.375L8.78906 4.52344H10.7734L10.7578 4.44531C10.4688 2.14844 8.55469 0.53125 5.96094 0.53125C2.72656 0.53125 0.671875 2.75 0.671875 6.35156V6.35938C0.671875 9.96094 2.72656 12.1953 5.96094 12.1953ZM14.7969 8.23438L15 5.22656H17.6016V12H19.5547V3.71875H13.3047L13.0312 8.09375C12.9375 9.59375 12.6562 10.375 11.8203 10.375C11.6094 10.375 11.4531 10.3438 11.375 10.3203V11.9844C11.5 12.0234 11.7578 12.0781 12.1172 12.0781C14.0625 12.0781 14.6406 10.5859 14.7969 8.23438ZM24.9375 12.1641C27.1016 12.1641 28.3203 10.8828 28.5859 9.60938L28.6016 9.52344H26.7812L26.7656 9.57812C26.5781 10.1328 25.9531 10.6484 24.9766 10.6484C23.7109 10.6484 22.9141 9.78906 22.8906 8.33594H28.6875V7.71094C28.6875 5.21094 27.2188 3.54688 24.8438 3.54688C22.4766 3.54688 20.9531 5.26562 20.9531 7.875V7.88281C20.9531 10.5156 22.4531 12.1641 24.9375 12.1641ZM24.8672 5.07031C25.8984 5.07031 26.6484 5.72656 26.7891 7.03906H22.9141C23.0625 5.76562 23.8438 5.07031 24.8672 5.07031ZM30.9922 14.2266V12H36.875V14.2266H38.6562V10.4766H37.3906V3.71875H31.0938L30.8047 8.03906C30.7266 9.15625 30.4766 10.1172 29.8672 10.4766H29.2109V14.2266H30.9922ZM35.4453 10.4766H31.8906V10.4375C32.2891 9.88281 32.4766 9.08594 32.5391 8.14062L32.75 5.24219H35.4453V10.4766ZM40.7422 14.75C42.4609 14.75 43.4375 14.1016 44.0625 12.2812L47.0469 3.71875H44.9922L43.0547 10.3438H42.9922L41.0547 3.71875H38.9375L41.9141 12.0078L41.7891 12.3438C41.5391 13.0391 41.1328 13.25 40.3828 13.25C40.1094 13.25 39.8828 13.2109 39.7422 13.1797V14.6641C39.9688 14.7031 40.3594 14.75 40.7422 14.75ZM48.0859 12H50.0312V8.5H51.2656C51.5 10.8047 52.9531 12.1641 55.1875 12.1641C57.6406 12.1641 59.1484 10.5625 59.1484 7.86719V7.85156C59.1484 5.16406 57.6328 3.54688 55.1875 3.54688C53.0391 3.54688 51.6016 4.82812 51.2969 6.97656H50.0312V3.71875H48.0859V12ZM55.1875 10.5938C53.9297 10.5938 53.2109 9.59375 53.2109 7.86719V7.85156C53.2109 6.125 53.9375 5.125 55.1875 5.125C56.4297 5.125 57.1562 6.125 57.1562 7.85156V7.86719C57.1562 9.59375 56.4375 10.5938 55.1875 10.5938ZM60.5547 12H71.0156V14.2266H72.7734V10.5H71.5156V3.71875H69.5703V10.4766H67.0078V3.71875H65.0625V10.4766H62.5V3.71875H60.5547V12ZM73.8672 12H75.7734L79.3438 6.4375H79.4219V12H81.3438V3.71875H79.4375L75.8672 9.24219H75.7891V3.71875H73.8672V12ZM86.8906 2.82812C88.6016 2.82812 89.6484 1.85156 89.6484 0.414062V0.351562H88.1562V0.414062C88.1562 1.08594 87.6875 1.64844 86.8984 1.64844C86.0781 1.64844 85.6406 1.08594 85.6406 0.414062V0.351562H84.1406V0.414062C84.1406 1.85156 85.1875 2.82812 86.8906 2.82812ZM83.0859 12H84.9922L88.5625 6.4375H88.6406V12H90.5625V3.71875H88.6562L85.0859 9.24219H85.0078V3.71875H83.0859V12Z" fill="#111111"/>
</svg>
